<?xml version="1.0" standalone="no"?>
<!DOCTYPE svg PUBLIC "-//W3C//DTD SVG 20010904//EN"
 "http://www.w3.org/TR/2001/REC-SVG-20010904/DTD/svg10.dtd">
<svg version="1.0" xmlns="http://www.w3.org/2000/svg"
 width="2048.000000pt" height="2048.000000pt" viewBox="0 0 2048.000000 2048.000000"
 preserveAspectRatio="xMidYMid meet">

<g transform="translate(0.000000,2048.000000) scale(0.100000,-0.100000)"
fill="#4169E1" stroke="none">
<path d="M0 10245 l0 -10235 10235 0 10235 0 0 10235 0 10235 -10235 0 -10235
0 0 -10235z m10309 3181 c34 -18 306 -297 453 -464 61 -70 192 -229 291 -354
99 -126 184 -228 190 -228 5 0 95 42 201 94 213 104 295 134 325 120 20 -10
88 -91 516 -624 148 -184 364 -452 480 -595 891 -1099 889 -1096 881 -1129 -3
-14 -15 -30 -26 -36 -13 -7 -484 -9 -1490 -8 l-1472 3 -19 24 c-34 41 -28 51
82 140 115 95 186 204 196 304 5 48 2 65 -21 111 -31 63 -72 99 -171 148 -104
52 -191 80 -500 157 -376 93 -507 143 -622 237 -80 66 -116 190 -79 279 31 73
206 225 260 225 29 0 66 -31 66 -56 0 -12 5 -14 18 -9 39 17 63 17 82 0 32
-29 34 -53 6 -90 -95 -124 55 -214 531 -315 396 -83 604 -144 784 -228 356
-165 474 -429 328 -741 -16 -35 -28 -66 -26 -68 2 -2 259 -2 570 -1 l566 3
-125 160 c-69 88 -167 214 -218 280 -52 66 -167 213 -257 326 -90 114 -209
265 -265 335 -55 71 -199 254 -320 408 -120 153 -239 304 -264 336 -406 524
-621 779 -829 985 -99 98 -101 99 -101 68 0 -45 -16 -119 -57 -264 -22 -78
-33 -136 -30 -151 4 -14 23 -49 43 -78 80 -116 96 -202 56 -293 -12 -26 -56
-97 -98 -158 -144 -208 -146 -253 -24 -434 71 -106 99 -171 107 -249 5 -55 3
-69 -12 -86 -22 -24 -43 -25 -73 -4 -17 12 -22 25 -22 62 0 57 -36 138 -109
244 -73 108 -91 152 -91 228 0 86 25 144 126 295 134 199 134 201 63 306 -53
79 -79 136 -79 179 0 19 18 99 39 178 22 78 43 164 46 190 l6 47 -136 -140
c-232 -239 -356 -376 -467 -515 -587 -739 -910 -1148 -1052 -1333 -100 -130
-135 -118 -161 58 -9 61 -25 149 -36 197 -10 48 -19 102 -19 120 1 47 37 129
103 231 107 164 111 179 101 341 l-7 120 -42 -49 c-24 -28 -150 -183 -282
-346 -131 -163 -314 -390 -408 -505 -93 -115 -190 -234 -215 -265 -25 -30
-130 -160 -235 -289 -104 -129 -219 -270 -255 -314 -36 -45 -91 -112 -123
-151 l-58 -70 1449 -5 c1208 -4 1452 -7 1465 -19 21 -16 22 -51 3 -76 -13 -18
-59 -19 -1512 -22 -825 -2 -1514 -1 -1532 2 -46 8 -62 44 -37 82 17 26 124
159 580 723 88 109 261 323 385 476 123 154 276 342 340 419 64 77 188 230
277 340 213 264 226 278 255 270 45 -14 256 -104 428 -184 96 -45 179 -80 185
-77 10 3 130 154 304 381 96 124 159 195 376 425 217 229 367 380 379 380 4 0
19 -6 35 -14z m431 -2536 c11 -11 20 -26 20 -32 0 -7 -20 -58 -44 -113 -24
-55 -92 -212 -152 -348 -59 -137 -116 -260 -126 -272 -21 -27 -623 -446 -651
-453 -25 -6 -60 28 -54 53 6 23 142 353 241 585 53 122 74 161 102 185 63 53
608 414 627 415 9 0 26 -9 37 -20z m3918 -2345 c76 -18 164 -62 215 -107 l38
-33 -38 -50 c-21 -28 -45 -62 -54 -75 l-16 -24 -50 32 c-144 92 -353 108 -418
30 -18 -21 -25 -41 -25 -72 0 -80 26 -96 262 -156 173 -43 239 -72 294 -127
55 -54 78 -114 78 -203 2 -220 -187 -352 -484 -337 -166 9 -328 72 -408 159
-21 23 -21 26 -6 39 9 7 36 39 60 71 l45 57 51 -39 c97 -73 245 -109 368 -89
107 17 150 52 150 120 0 76 -59 111 -269 159 -71 16 -158 42 -193 58 -120 54
-187 166 -175 292 13 142 100 241 255 291 72 23 232 25 320 4z m-8952 -405
c80 -223 147 -412 150 -420 4 -9 13 3 24 35 15 41 214 604 267 753 l15 42 115
0 c105 0 115 -2 110 -17 -4 -16 -72 -195 -346 -913 l-70 -185 -110 -3 -109 -3
-62 158 c-34 87 -125 322 -201 523 -77 201 -144 375 -149 388 -22 51 -19 53
106 50 l116 -3 144 -405z m1182 -147 l2 -553 -110 0 -110 0 0 548 c0 302 3
552 7 556 4 4 52 5 107 4 l101 -3 3 -552z m1067 242 c68 -170 166 -419 218
-552 l95 -243 -118 0 -117 0 -45 128 -45 127 -223 0 -223 0 -47 -130 -46 -130
-115 2 c-92 1 -113 5 -111 16 1 8 96 250 211 538 114 288 211 532 214 542 6
16 19 17 117 15 l111 -3 124 -310z m1157 -47 c4 -459 1 -497 -41 -582 -86
-175 -314 -236 -516 -137 -56 28 -145 101 -145 120 0 5 32 35 71 66 l71 57 31
-30 c42 -41 95 -62 154 -62 63 0 112 27 137 76 20 37 21 58 24 447 l3 407 104
0 105 0 2 -362z m1178 267 l0 -95 -287 -2 -288 -3 -3 -132 -3 -133 256 0 255
0 0 -90 0 -90 -253 0 -254 0 3 -142 4 -143 295 -3 296 -2 -3 -91 -3 -90 -155
-3 c-85 -2 -269 -1 -407 2 l-253 5 0 554 0 553 400 0 400 0 0 -95z m784 -252
c88 -188 162 -340 163 -339 5 5 225 454 275 564 l57 122 136 0 135 0 0 -555 0
-555 -105 0 -105 0 -1 388 0 387 -87 -175 c-48 -96 -121 -246 -162 -332 l-75
-157 -65 -1 -65 0 -103 218 c-57 119 -130 269 -162 332 l-59 115 0 -387 -1
-388 -105 0 -105 0 0 548 c0 302 3 552 7 556 4 3 65 5 136 4 l130 -3 161 -342z
m1823 65 c129 -324 310 -796 315 -818 2 -12 -14 -15 -97 -16 -55 -1 -109 2
-119 6 -15 5 -31 40 -61 131 l-42 124 -213 3 c-118 1 -217 -1 -222 -6 -4 -4
-28 -64 -52 -132 l-43 -124 -114 3 c-63 1 -115 4 -117 5 -4 5 418 1070 435
1099 2 4 52 7 111 7 l107 0 112 -282z m813 -273 l0 -555 -110 0 -110 0 0 555
0 555 110 0 110 0 0 -555z m5922 -6682 c66 -30 139 -102 174 -170 26 -52 29
-67 29 -153 -1 -76 -5 -105 -23 -143 -30 -66 -101 -138 -169 -173 l-58 -29
-225 0 c-211 0 -228 1 -273 22 -66 31 -138 102 -173 170 -26 52 -29 68 -29
153 0 76 4 104 21 141 26 55 85 123 135 154 78 50 109 55 334 52 192 -2 214
-4 257 -24z"/>
<path d="M11491 12375 l-183 -91 64 -79 c35 -44 122 -153 192 -243 73 -93 132
-160 137 -155 5 5 12 42 15 83 6 74 5 76 -32 135 -88 142 -90 156 -39 325 19
63 33 114 32 115 -1 0 -85 -40 -186 -90z"/>
<path d="M11770 12370 c-7 -25 -21 -72 -31 -105 -25 -79 -24 -85 10 -132 67
-92 76 -120 75 -223 -1 -52 -9 -126 -17 -165 l-16 -70 61 -80 c34 -44 166
-212 292 -374 127 -161 251 -319 276 -351 25 -32 132 -168 239 -304 l195 -246
309 0 c246 0 307 3 300 13 -11 13 -227 282 -314 389 -30 36 -117 144 -194 240
-77 95 -218 270 -315 388 -96 118 -319 394 -495 614 -176 219 -330 410 -341
425 l-22 26 -12 -45z"/>
<path d="M8651 12343 c5 -21 12 -94 15 -163 9 -160 -2 -198 -97 -350 -120
-194 -114 -172 -89 -308 12 -65 24 -128 27 -142 l5 -25 26 34 c61 80 336 428
464 590 76 95 137 175 136 176 -3 3 -453 208 -485 222 -8 3 -9 -6 -2 -34z"/>
<path d="M9779 11697 c-122 -70 -159 -114 -159 -186 0 -34 7 -49 40 -85 79
-85 199 -132 638 -246 401 -104 513 -147 613 -238 162 -145 147 -383 -34 -569
l-51 -53 305 0 305 0 33 55 c19 30 45 86 58 123 34 92 30 211 -11 290 -98 192
-355 314 -921 437 -443 96 -601 148 -701 230 -71 59 -96 135 -70 216 10 28 16
53 14 54 -2 2 -28 -11 -59 -28z"/>
<path d="M10432 10615 l-153 -103 34 -11 c37 -13 86 -60 110 -106 l15 -30 11
27 c12 33 81 193 115 271 14 31 25 57 23 56 -1 0 -71 -47 -155 -104z"/>
<path d="M10195 10406 c-38 -16 -60 -57 -59 -108 2 -73 79 -123 147 -94 44 18
57 41 57 101 0 38 -5 52 -29 76 -16 16 -36 29 -44 29 -9 0 -21 2 -29 5 -7 2
-26 -2 -43 -9z"/>
<path d="M10010 10123 c-19 -49 -49 -121 -67 -162 -18 -40 -33 -75 -33 -77 0
-1 67 43 149 98 l150 101 -51 25 c-30 15 -61 40 -77 63 -14 21 -28 38 -31 39
-3 0 -21 -39 -40 -87z"/>
<path d="M7634 8081 l-80 -219 160 -4 c89 -2 163 -3 165 -2 5 4 -153 444 -159
444 -3 0 -42 -99 -86 -219z"/>
<path d="M12670 8308 c0 -3 -36 -103 -80 -223 -44 -121 -78 -220 -77 -221 1
-1 73 -4 160 -6 111 -2 157 0 157 8 0 13 -149 436 -156 443 -2 2 -4 2 -4 -1z"/>
<path d="M19466 1174 c-31 -30 -8 -69 36 -62 26 3 37 41 18 64 -16 18 -35 18
-54 -2z"/>
<path d="M19207 1060 c-26 -21 -27 -24 -13 -39 13 -13 20 -13 36 -3 27 17 76
15 94 -4 31 -30 19 -39 -44 -36 -52 3 -62 1 -85 -22 -33 -33 -34 -84 -2 -114
28 -26 92 -30 125 -6 20 14 22 14 22 0 0 -11 10 -16 31 -16 l31 0 -4 105 c-4
130 -15 146 -105 153 -49 3 -63 0 -86 -18z m131 -135 c10 -9 -12 -39 -41 -55
-20 -11 -31 -12 -44 -4 -47 29 -14 79 46 70 18 -3 36 -8 39 -11z"/>
<path d="M19460 945 l0 -125 30 0 30 0 0 125 0 125 -30 0 -30 0 0 -125z"/>
</g>
</svg>
